<?xml version="1.0" encoding="UTF-8"?>
<svg id="Layer_1" data-name="Layer 1" xmlns="http://www.w3.org/2000/svg" xmlns:xlink="http://www.w3.org/1999/xlink" viewBox="0 0 1141.94 12.24">
  <defs>
    <style>
      .cls-1 {
        fill: none;
      }

      .cls-1, .cls-2 {
        stroke-width: 0px;
      }

      .cls-2 {
        fill: #19588d;
      }

      .cls-3 {
        clip-path: url(#clippath);
      }
    </style>
    <clipPath id="clippath">
      <rect class="cls-1" width="1141.94" height="12.24"/>
    </clipPath>
  </defs>
  <g class="cls-3">
    <path class="cls-2" d="M7.02,3.36c-.5-.05-.99-.09-1.49-.15,1,.7,2,1.4,3,2.11C7.09.91.44,2.07.02,6.49c-.49,5.18,7.12,6.66,8.64,1.71-.94.79-1.89,1.58-2.83,2.37.49-.06.98-.1,1.48-.14,4.08-.37,3.63-6.7-.28-7.06"/>
    <path class="cls-2" d="M20.18,11.32c5.67,0,6.54-8.83.84-8.83s-6.54,8.83-.84,8.83"/>
    <path class="cls-2" d="M32.94,12.24c6.85,0,7.91-10.67,1.01-10.67s-7.91,10.67-1.01,10.67"/>
    <path class="cls-2" d="M51.16.58c-2.35-.59-4.63-1.16-6.68.6-2.33,2.01-1.84,5.21.33,7.06,1.66,1.41,3.71,1.03,5.62.55,1.86-.47,3.32-1.81,3.51-3.8.16-1.75-.94-3.95-2.77-4.41"/>
    <path class="cls-2" d="M60.87,11.16c5.46,0,6.3-8.5.8-8.5s-6.3,8.5-.8,8.5"/>
    <path class="cls-2" d="M77.85,3.36c-.5-.05-.99-.09-1.49-.15,1,.7,2,1.4,3,2.11-1.45-4.4-8.1-3.25-8.51,1.17-.49,5.18,7.12,6.66,8.64,1.71-.94.79-1.89,1.58-2.83,2.37.49-.06.98-.1,1.48-.14,4.08-.37,3.63-6.7-.28-7.06"/>
    <path class="cls-2" d="M91.01,11.32c5.67,0,6.54-8.83.84-8.83s-6.54,8.83-.84,8.83"/>
    <path class="cls-2" d="M103.77,12.24c6.85,0,7.91-10.67,1.01-10.67s-7.91,10.67-1.01,10.67"/>
    <path class="cls-2" d="M121.99.58c-2.35-.59-4.63-1.16-6.68.6-2.33,2.01-1.84,5.21.33,7.06,1.66,1.41,3.71,1.03,5.61.55,1.86-.47,3.32-1.81,3.51-3.8.16-1.75-.94-3.95-2.77-4.41"/>
    <path class="cls-2" d="M131.7,11.16c5.46,0,6.3-8.5.8-8.5s-6.3,8.5-.8,8.5"/>
    <path class="cls-2" d="M148.67,3.36c-.5-.05-.99-.09-1.49-.15,1,.7,2,1.4,3,2.11-1.45-4.4-8.1-3.25-8.51,1.17-.49,5.18,7.12,6.66,8.64,1.71-.94.79-1.89,1.58-2.83,2.37.49-.06.98-.1,1.48-.14,4.08-.37,3.63-6.7-.28-7.06"/>
    <path class="cls-2" d="M161.83,11.32c5.67,0,6.54-8.83.84-8.83s-6.54,8.83-.84,8.83"/>
    <path class="cls-2" d="M174.59,12.24c6.85,0,7.91-10.67,1.01-10.67s-7.91,10.67-1.01,10.67"/>
    <path class="cls-2" d="M192.81.58c-2.35-.59-4.63-1.16-6.68.6-2.33,2.01-1.84,5.21.33,7.06,1.66,1.41,3.71,1.03,5.62.55,1.86-.47,3.32-1.81,3.51-3.8.16-1.75-.94-3.95-2.77-4.41"/>
    <path class="cls-2" d="M202.52,11.16c5.46,0,6.3-8.5.8-8.5s-6.3,8.5-.8,8.5"/>
    <path class="cls-2" d="M219.5,3.36c-.5-.05-.99-.09-1.49-.15,1,.7,2,1.4,3,2.11-1.45-4.4-8.1-3.25-8.51,1.17-.49,5.18,7.12,6.66,8.64,1.71-.94.79-1.89,1.58-2.83,2.37.49-.06.98-.1,1.48-.14,4.08-.37,3.63-6.7-.28-7.06"/>
    <path class="cls-2" d="M232.66,11.32c5.67,0,6.54-8.83.84-8.83s-6.54,8.83-.84,8.83"/>
    <path class="cls-2" d="M245.42,12.24c6.85,0,7.91-10.67,1.01-10.67s-7.91,10.67-1.01,10.67"/>
    <path class="cls-2" d="M263.64.58c-2.35-.59-4.63-1.16-6.68.6-2.33,2.01-1.84,5.21.33,7.06,1.66,1.41,3.71,1.03,5.62.55,1.86-.47,3.32-1.81,3.51-3.8.16-1.75-.94-3.95-2.77-4.41"/>
    <path class="cls-2" d="M273.35,11.16c5.46,0,6.3-8.5.8-8.5s-6.3,8.5-.8,8.5"/>
    <path class="cls-2" d="M290.32,3.36c-.5-.05-.99-.09-1.49-.15,1,.7,2,1.4,3,2.11-1.45-4.4-8.1-3.25-8.51,1.17-.49,5.18,7.12,6.66,8.64,1.71-.94.79-1.89,1.58-2.83,2.37.49-.06.98-.1,1.48-.14,4.08-.37,3.63-6.7-.28-7.06"/>
    <path class="cls-2" d="M303.48,11.32c5.67,0,6.54-8.83.84-8.83s-6.54,8.83-.84,8.83"/>
    <path class="cls-2" d="M316.24,12.24c6.85,0,7.91-10.67,1.01-10.67s-7.91,10.67-1.01,10.67"/>
    <path class="cls-2" d="M334.46.58c-2.35-.59-4.63-1.16-6.68.6-2.33,2.01-1.84,5.21.33,7.06,1.66,1.41,3.71,1.03,5.62.55,1.86-.47,3.32-1.81,3.51-3.8.16-1.75-.94-3.95-2.77-4.41"/>
    <path class="cls-2" d="M344.17,11.16c5.46,0,6.3-8.5.8-8.5s-6.3,8.5-.8,8.5"/>
    <path class="cls-2" d="M361.15,3.36c-.5-.05-.99-.09-1.49-.15,1,.7,2,1.4,3,2.11-1.45-4.4-8.1-3.25-8.51,1.17-.49,5.18,7.12,6.66,8.64,1.71-.94.79-1.89,1.58-2.83,2.37.49-.06.98-.1,1.48-.14,4.08-.37,3.63-6.7-.28-7.06"/>
    <path class="cls-2" d="M374.31,11.32c5.67,0,6.54-8.83.84-8.83s-6.54,8.83-.84,8.83"/>
    <path class="cls-2" d="M387.07,12.24c6.85,0,7.91-10.67,1.01-10.67s-7.91,10.67-1.01,10.67"/>
    <path class="cls-2" d="M405.29.58c-2.35-.59-4.63-1.16-6.68.6-2.33,2.01-1.84,5.21.33,7.06,1.66,1.41,3.71,1.03,5.62.55,1.86-.47,3.32-1.81,3.51-3.8.16-1.75-.94-3.95-2.77-4.41"/>
    <path class="cls-2" d="M415,11.16c5.46,0,6.3-8.5.8-8.5s-6.3,8.5-.8,8.5"/>
    <path class="cls-2" d="M431.97,3.36c-.5-.05-.99-.09-1.49-.15,1,.7,2,1.4,3,2.11-1.45-4.4-8.1-3.25-8.51,1.17-.49,5.18,7.12,6.66,8.64,1.71-.94.79-1.89,1.58-2.83,2.37.49-.06.98-.1,1.48-.14,4.08-.37,3.63-6.7-.28-7.06"/>
    <path class="cls-2" d="M445.13,11.32c5.67,0,6.54-8.83.84-8.83s-6.54,8.83-.84,8.83"/>
    <path class="cls-2" d="M457.89,12.24c6.85,0,7.91-10.67,1.01-10.67s-7.91,10.67-1.01,10.67"/>
    <path class="cls-2" d="M476.11.58c-2.35-.59-4.63-1.16-6.68.6-2.33,2.01-1.84,5.21.33,7.06,1.66,1.41,3.71,1.03,5.61.55,1.86-.47,3.32-1.81,3.51-3.8.16-1.75-.94-3.95-2.77-4.41"/>
    <path class="cls-2" d="M485.82,11.16c5.46,0,6.3-8.5.8-8.5s-6.3,8.5-.8,8.5"/>
    <path class="cls-2" d="M502.8,3.36c-.5-.05-.99-.09-1.49-.15,1,.7,2,1.4,3,2.11-1.45-4.4-8.1-3.25-8.51,1.17-.49,5.18,7.12,6.66,8.64,1.71-.94.79-1.89,1.58-2.83,2.37.49-.06.98-.1,1.48-.14,4.08-.37,3.63-6.7-.28-7.06"/>
    <path class="cls-2" d="M515.96,11.32c5.67,0,6.54-8.83.84-8.83s-6.54,8.83-.84,8.83"/>
    <path class="cls-2" d="M528.72,12.24c6.85,0,7.91-10.67,1.01-10.67s-7.91,10.67-1.01,10.67"/>
    <path class="cls-2" d="M546.94.58c-2.35-.59-4.63-1.16-6.68.6-2.33,2.01-1.84,5.21.33,7.06,1.66,1.41,3.71,1.03,5.61.55,1.86-.47,3.32-1.81,3.51-3.8.16-1.75-.94-3.95-2.77-4.41"/>
    <path class="cls-2" d="M556.65,11.16c5.46,0,6.3-8.5.8-8.5s-6.3,8.5-.8,8.5"/>
    <path class="cls-2" d="M573.62,3.36c-.5-.05-.99-.09-1.49-.15,1,.7,2,1.4,3,2.11-1.45-4.4-8.1-3.25-8.51,1.17-.49,5.18,7.12,6.66,8.64,1.71-.94.79-1.89,1.58-2.83,2.37.49-.06.98-.1,1.48-.14,4.08-.37,3.63-6.7-.28-7.06"/>
    <path class="cls-2" d="M586.78,11.32c5.67,0,6.54-8.83.84-8.83s-6.54,8.83-.84,8.83"/>
    <path class="cls-2" d="M599.54,12.24c6.85,0,7.91-10.67,1.01-10.67s-7.91,10.67-1.01,10.67"/>
    <path class="cls-2" d="M617.76.58c-2.35-.59-4.63-1.16-6.68.6-2.33,2.01-1.84,5.21.33,7.06,1.66,1.41,3.71,1.03,5.62.55,1.86-.47,3.32-1.81,3.51-3.8.16-1.75-.94-3.95-2.77-4.41"/>
    <path class="cls-2" d="M627.47,11.16c5.46,0,6.3-8.5.8-8.5s-6.3,8.5-.8,8.5"/>
    <path class="cls-2" d="M644.45,3.36c-.5-.05-.99-.09-1.49-.15,1,.7,2,1.4,3,2.11-1.45-4.4-8.1-3.25-8.51,1.17-.49,5.18,7.12,6.66,8.64,1.71-.94.79-1.89,1.58-2.83,2.37.49-.06.98-.1,1.48-.14,4.08-.37,3.63-6.7-.28-7.06"/>
    <path class="cls-2" d="M657.61,11.32c5.67,0,6.54-8.83.84-8.83s-6.54,8.83-.84,8.83"/>
    <path class="cls-2" d="M670.37,12.24c6.85,0,7.91-10.67,1.01-10.67s-7.91,10.67-1.01,10.67"/>
    <path class="cls-2" d="M688.59.58c-2.35-.59-4.63-1.16-6.68.6-2.33,2.01-1.84,5.21.33,7.06,1.66,1.41,3.71,1.03,5.62.55,1.86-.47,3.32-1.81,3.51-3.8.16-1.75-.94-3.95-2.77-4.41"/>
    <path class="cls-2" d="M698.3,11.16c5.46,0,6.3-8.5.8-8.5s-6.3,8.5-.8,8.5"/>
    <path class="cls-2" d="M715.27,3.36c-.5-.05-.99-.09-1.49-.15,1,.7,2,1.4,3,2.11-1.45-4.4-8.1-3.25-8.51,1.17-.49,5.18,7.12,6.66,8.64,1.71-.94.79-1.89,1.58-2.83,2.37.49-.06.98-.1,1.48-.14,4.08-.37,3.63-6.7-.28-7.06"/>
    <path class="cls-2" d="M728.43,11.32c5.67,0,6.54-8.83.84-8.83s-6.54,8.83-.84,8.83"/>
    <path class="cls-2" d="M741.19,12.24c6.85,0,7.91-10.67,1.01-10.67s-7.91,10.67-1.01,10.67"/>
    <path class="cls-2" d="M759.41.58c-2.35-.59-4.63-1.16-6.68.6-2.33,2.01-1.84,5.21.33,7.06,1.66,1.41,3.71,1.03,5.61.55,1.86-.47,3.32-1.81,3.51-3.8.16-1.75-.94-3.95-2.77-4.41"/>
    <path class="cls-2" d="M769.13,11.16c5.46,0,6.3-8.5.8-8.5s-6.3,8.5-.8,8.5"/>
    <path class="cls-2" d="M786.1,3.36c-.5-.05-.99-.09-1.49-.15,1,.7,2,1.4,3,2.11-1.45-4.4-8.1-3.25-8.51,1.17-.49,5.18,7.12,6.66,8.64,1.71-.94.79-1.89,1.58-2.83,2.37.49-.06.98-.1,1.48-.14,4.08-.37,3.63-6.7-.28-7.06"/>
    <path class="cls-2" d="M799.26,11.32c5.67,0,6.54-8.83.84-8.83s-6.54,8.83-.84,8.83"/>
    <path class="cls-2" d="M812.02,12.24c6.85,0,7.91-10.67,1.01-10.67s-7.91,10.67-1.01,10.67"/>
    <path class="cls-2" d="M830.24.58c-2.35-.59-4.63-1.16-6.68.6-2.33,2.01-1.84,5.21.33,7.06,1.66,1.41,3.71,1.03,5.61.55,1.86-.47,3.32-1.81,3.51-3.8.16-1.75-.94-3.95-2.77-4.41"/>
    <path class="cls-2" d="M839.95,11.16c5.46,0,6.3-8.5.8-8.5s-6.3,8.5-.8,8.5"/>
    <path class="cls-2" d="M855.5,3.36c-.5-.05-.99-.09-1.49-.15,1,.7,2,1.4,3,2.11-1.45-4.4-8.1-3.25-8.51,1.17-.49,5.18,7.12,6.66,8.64,1.71-.94.79-1.89,1.58-2.83,2.37.49-.06.98-.1,1.48-.14,4.08-.37,3.63-6.7-.28-7.06"/>
    <path class="cls-2" d="M868.66,11.32c5.67,0,6.54-8.83.84-8.83s-6.54,8.83-.84,8.83"/>
    <path class="cls-2" d="M881.42,12.24c6.85,0,7.91-10.67,1.01-10.67s-7.91,10.67-1.01,10.67"/>
    <path class="cls-2" d="M899.64.58c-2.35-.59-4.63-1.16-6.68.6-2.33,2.01-1.84,5.21.33,7.06,1.66,1.41,3.71,1.03,5.61.55,1.86-.47,3.32-1.81,3.51-3.8.16-1.75-.94-3.95-2.77-4.41"/>
    <path class="cls-2" d="M909.35,11.16c5.46,0,6.3-8.5.8-8.5s-6.3,8.5-.8,8.5"/>
    <path class="cls-2" d="M926.32,3.36c-.5-.05-.99-.09-1.49-.15,1,.7,2,1.4,3,2.11-1.45-4.4-8.1-3.25-8.51,1.17-.49,5.18,7.12,6.66,8.64,1.71-.94.79-1.89,1.58-2.83,2.37.49-.06.98-.1,1.48-.14,4.08-.37,3.63-6.7-.28-7.06"/>
    <path class="cls-2" d="M939.48,11.32c5.67,0,6.54-8.83.84-8.83s-6.54,8.83-.84,8.83"/>
    <path class="cls-2" d="M952.25,12.24c6.85,0,7.91-10.67,1.01-10.67s-7.91,10.67-1.01,10.67"/>
    <path class="cls-2" d="M970.46.58c-2.35-.59-4.63-1.16-6.68.6-2.33,2.01-1.84,5.21.33,7.06,1.66,1.41,3.71,1.03,5.61.55,1.86-.47,3.32-1.81,3.51-3.8.16-1.75-.94-3.95-2.77-4.41"/>
    <path class="cls-2" d="M980.18,11.16c5.46,0,6.3-8.5.8-8.5s-6.3,8.5-.8,8.5"/>
    <path class="cls-2" d="M997.15,3.36c-.5-.05-.99-.09-1.49-.15,1,.7,2,1.4,3,2.11-1.45-4.4-8.1-3.25-8.51,1.17-.49,5.18,7.12,6.66,8.64,1.71-.94.79-1.89,1.58-2.83,2.37.49-.06.98-.1,1.48-.14,4.08-.37,3.63-6.7-.28-7.06"/>
    <path class="cls-2" d="M1010.31,11.32c5.67,0,6.54-8.83.84-8.83s-6.54,8.83-.84,8.83"/>
    <path class="cls-2" d="M1023.07,12.24c6.85,0,7.91-10.67,1.01-10.67s-7.91,10.67-1.01,10.67"/>
    <path class="cls-2" d="M1041.29.58c-2.35-.59-4.63-1.16-6.68.6-2.33,2.01-1.84,5.21.33,7.06,1.66,1.41,3.71,1.03,5.62.55,1.86-.47,3.32-1.81,3.51-3.8.16-1.75-.94-3.95-2.77-4.41"/>
    <path class="cls-2" d="M1051,11.16c5.46,0,6.3-8.5.8-8.5s-6.3,8.5-.8,8.5"/>
    <path class="cls-2" d="M1067.97,3.36c-.5-.05-.99-.09-1.49-.15,1,.7,2,1.4,3,2.11-1.45-4.4-8.1-3.25-8.51,1.17-.49,5.18,7.12,6.66,8.64,1.71-.94.79-1.89,1.58-2.83,2.37.49-.06.98-.1,1.48-.14,4.08-.37,3.63-6.7-.28-7.06"/>
    <path class="cls-2" d="M1081.13,11.32c5.67,0,6.54-8.83.84-8.83s-6.54,8.83-.84,8.83"/>
    <path class="cls-2" d="M1093.9,12.24c6.85,0,7.91-10.67,1.01-10.67s-7.91,10.67-1.01,10.67"/>
    <path class="cls-2" d="M1112.11.58c-2.35-.59-4.63-1.16-6.68.6-2.33,2.01-1.84,5.21.33,7.06,1.66,1.41,3.71,1.03,5.62.55,1.86-.47,3.32-1.81,3.51-3.8.16-1.75-.94-3.95-2.77-4.41"/>
    <path class="cls-2" d="M1121.83,11.16c5.46,0,6.3-8.5.8-8.5s-6.3,8.5-.8,8.5"/>
    <path class="cls-2" d="M1138.8,3.36c-.5-.05-.99-.09-1.49-.15,1,.7,2,1.4,3,2.11-1.45-4.4-8.1-3.25-8.51,1.17-.49,5.18,7.12,6.66,8.64,1.71-.94.79-1.89,1.58-2.83,2.37.49-.06.98-.1,1.48-.14,4.08-.37,3.63-6.7-.28-7.06"/>
  </g>
</svg>