<?xml version="1.0" encoding="UTF-8"?>
<svg id="Layer_1" data-name="Layer 1" xmlns="http://www.w3.org/2000/svg" xmlns:xlink="http://www.w3.org/1999/xlink" viewBox="0 0 21 21.35">
  <defs>
    <style>
      .cls-1 {
        fill: none;
      }

      .cls-1, .cls-2 {
        stroke-width: 0px;
      }

      .cls-2 {
        fill: #19588d;
      }

      .cls-3 {
        clip-path: url(#clippath);
      }
    </style>
    <clipPath id="clippath">
      <rect class="cls-1" x="0" width="21" height="21.35"/>
    </clipPath>
  </defs>
  <g class="cls-3">
    <path class="cls-2" d="M5.91,3.78c1.89,0,2.18-2.94.28-2.94s-2.18,2.94-.28,2.94"/>
    <path class="cls-2" d="M10.17,4.08c2.29,0,2.64-3.56.34-3.56s-2.64,3.56-.34,3.56"/>
    <path class="cls-2" d="M16.25.19c-.79-.2-1.55-.39-2.23.2-.78.67-.61,1.74.11,2.35.55.47,1.24.34,1.87.18.62-.16,1.11-.6,1.17-1.27.06-.58-.31-1.32-.92-1.47"/>
    <path class="cls-2" d="M19.49,3.72c1.82,0,2.1-2.84.27-2.84s-2.1,2.84-.27,2.84"/>
    <path class="cls-2" d="M5.91,12.41c1.89,0,2.18-2.94.28-2.94s-2.18,2.94-.28,2.94"/>
    <path class="cls-2" d="M10.17,12.72c2.29,0,2.64-3.56.34-3.56s-2.64,3.56-.34,3.56"/>
    <path class="cls-2" d="M16.25,8.83c-.79-.2-1.55-.39-2.23.2-.78.67-.61,1.74.11,2.35.55.47,1.24.34,1.87.18.62-.16,1.11-.6,1.17-1.27.06-.58-.31-1.32-.92-1.47"/>
    <path class="cls-2" d="M19.49,12.36c1.82,0,2.1-2.84.27-2.84s-2.1,2.84-.27,2.84"/>
    <path class="cls-2" d="M5.91,21.05c1.89,0,2.18-2.94.28-2.94s-2.18,2.94-.28,2.94"/>
    <path class="cls-2" d="M10.17,21.35c2.29,0,2.64-3.56.34-3.56s-2.64,3.56-.34,3.56"/>
    <path class="cls-2" d="M16.25,17.46c-.79-.2-1.55-.39-2.23.2-.78.67-.61,1.74.11,2.35.55.47,1.24.34,1.87.18.62-.16,1.11-.6,1.17-1.27.06-.58-.31-1.32-.92-1.47"/>
    <path class="cls-2" d="M19.49,20.99c1.82,0,2.1-2.84.27-2.84s-2.1,2.84-.27,2.84"/>
    <path class="cls-2" d="M1.24,3.17C3.07,3.17,3.35.33,1.51.33s-2.1,2.84-.27,2.84"/>
    <path class="cls-2" d="M1.24,11.8c1.82,0,2.1-2.84.27-2.84s-2.1,2.84-.27,2.84"/>
    <path class="cls-2" d="M1.24,20.44c1.82,0,2.1-2.84.27-2.84s-2.1,2.84-.27,2.84"/>
  </g>
</svg>