<?xml version="1.0" encoding="UTF-8"?>
<svg id="Layer_1" data-name="Layer 1" xmlns="http://www.w3.org/2000/svg" xmlns:xlink="http://www.w3.org/1999/xlink" viewBox="0 0 1719.55 23.84">
  <defs>
    <style>
      .cls-1 {
        stroke: #875193;
        stroke-miterlimit: 10;
        stroke-width: .55px;
      }

      .cls-1, .cls-2 {
        fill: none;
      }

      .cls-3 {
        fill: #875193;
      }

      .cls-3, .cls-2 {
        stroke-width: 0px;
      }

      .cls-4 {
        clip-path: url(#clippath);
      }
    </style>
    <clipPath id="clippath">
      <rect class="cls-2" width="1719.55" height="23.84"/>
    </clipPath>
  </defs>
  <g class="cls-4">
    <path class="cls-3" d="M1664.08,11.36c17.14-.19,33.89.1,55.47-.18-17.08-.14-49.39-.45-55.47.18"/>
    <path class="cls-1" d="M1664.08,11.36c17.14-.19,33.89.1,55.47-.18-17.08-.14-49.39-.45-55.47.18Z"/>
    <path class="cls-3" d="M1673.43,16.24c20.34.03,30.67-.13,35.88-.36-20.34-.01-30.5.13-35.88.36"/>
    <path class="cls-1" d="M1673.43,16.24c20.34.03,30.67-.13,35.88-.36-20.34-.01-30.5.13-35.88.36Z"/>
    <path class="cls-3" d="M1670.19,16.21c6.62.08,11.01-.03,11.81-.36-6.65-.05-11.01.04-11.81.36"/>
    <path class="cls-1" d="M1670.19,16.21c6.62.08,11.01-.03,11.81-.36-6.65-.05-11.01.04-11.81.36Z"/>
    <path class="cls-3" d="M1662.57,19.68c-.32-.48,17.9.23,13.91-.5-7.49-.12-21.86.19-13.91.5"/>
    <path class="cls-1" d="M1662.57,19.68c-.32-.48,17.9.23,13.91-.5-7.49-.12-21.86.19-13.91.5Z"/>
    <path class="cls-3" d="M1316.34,16.51c84.49-.15,246.92-.14,350.29-.81-143.08.19-268.64.05-395.35.18,11.62.98,30.46.66,45.07.63"/>
    <path class="cls-1" d="M1316.34,16.51c84.49-.15,246.92-.14,350.29-.81-143.08.19-268.64.05-395.35.18,11.62.98,30.46.66,45.07.63Z"/>
    <path class="cls-3" d="M1561.25,11.43c-4.49.08,5.37.17,9.33.08-12.16,0-1.09-.02-2.98-.08,30.73-.05,54.75.1,72.99-.07-56.12,0-95.51.04-148.9,0,19.22.14,41.12.05,69.56.07"/>
    <path class="cls-1" d="M1561.25,11.43c-4.49.08,5.37.17,9.33.08-12.16,0-1.09-.02-2.98-.08,30.73-.05,54.75.1,72.99-.07-56.12,0-95.51.04-148.9,0,19.22.14,41.12.05,69.56.07Z"/>
    <path class="cls-3" d="M1629.15,19.47c7.11.14-21.68-.42,0,0"/>
    <path class="cls-3" d="M1624.01,7.77c7.89.1,8.19-.39,7.8-.93-4.41-.01-7.88.02-10.15.18-.7.36,2.75.41,2.35.75"/>
    <path class="cls-1" d="M1624.01,7.77c7.89.1,8.19-.39,7.8-.93-4.41-.01-7.88.02-10.15.18-.7.36,2.75.41,2.35.75Z"/>
    <path class="cls-3" d="M1621.63,11.63c1.6.02,3.08.04,2.54.2,3.24-.03,6.29-.05,5.41-.35-3.11.03-7.52-.05-7.96.15"/>
    <path class="cls-1" d="M1621.63,11.63c1.6.02,3.08.04,2.54.2,3.24-.03,6.29-.05,5.41-.35-3.11.03-7.52-.05-7.96.15Z"/>
    <path class="cls-3" d="M1581.75,12.61c0-.13.05-.26.07-.39h-3.93c-.04.12-.07.26-.07.36,1.28.01,2.6.03,3.93.03"/>
    <path class="cls-1" d="M1581.75,12.61c0-.13.05-.26.07-.39h-3.93c-.04.12-.07.26-.07.36,1.28.01,2.6.03,3.93.03Z"/>
    <path class="cls-3" d="M1563.57,4.48c.6-.4-.35-.66-3.76-.71-.65.39.35.65,3.76.71"/>
    <path class="cls-1" d="M1563.57,4.48c.6-.4-.35-.66-3.76-.71-.65.39.35.65,3.76.71Z"/>
    <path class="cls-3" d="M1552.9,19.27c-6.57,0-13.1-.02-19.66-.02-3.75.57,23.11.62,19.66.02"/>
    <path class="cls-1" d="M1552.9,19.27c-6.57,0-13.1-.02-19.66-.02-3.75.57,23.11.62,19.66.02Z"/>
    <path class="cls-3" d="M1545.45,8.66c-3.15.01-7.57-.04-8.05.16,1.62.03,3.15.05,2.61.2,3.28-.02,6.33-.05,5.44-.36"/>
    <path class="cls-1" d="M1545.45,8.66c-3.15.01-7.57-.04-8.05.16,1.62.03,3.15.05,2.61.2,3.28-.02,6.33-.05,5.44-.36Z"/>
    <path class="cls-3" d="M1475.01,19.02c2.48.05,6.25.02,6.29.2-17.96.3-44.13-.13-66.43.28,35.66.03,64.81.55,101.18-.23-10.2-.18-27.42.19-28.43-.05.15-.3,8.77-.08,9.56-.36-6.56.1-20.64-.25-22.18.15"/>
    <path class="cls-1" d="M1475.01,19.02c2.48.05,6.25.02,6.29.2-17.96.3-44.13-.13-66.43.28,35.66.03,64.81.55,101.18-.23-10.2-.18-27.42.19-28.43-.05.15-.3,8.77-.08,9.56-.36-6.56.1-20.64-.25-22.18.15Z"/>
    <path class="cls-3" d="M1424.87,14.57c21.5-.19,53.42.15,91.62.05,0-.18.17-.36.43-.54-28.05-.05-77.43-.21-92.05.49"/>
    <path class="cls-1" d="M1424.87,14.57c21.5-.19,53.42.15,91.62.05,0-.18.17-.36.43-.54-28.05-.05-77.43-.21-92.05.49Z"/>
    <path class="cls-3" d="M1494.76,5.52c2.23.05,5.77.01,5.8.19-2.27.04-5.78-.01-5.95.18,1.82.01,3.53.04,2.94.19h5.85c-3.54-.75,8.67-.44,9.06-.93-7.77,0-17.25-.13-17.7.36"/>
    <path class="cls-1" d="M1494.76,5.52c2.23.05,5.77.01,5.8.19-2.27.04-5.78-.01-5.95.18,1.82.01,3.53.04,2.94.19h5.85c-3.54-.75,8.67-.44,9.06-.93-7.77,0-17.25-.13-17.7.36Z"/>
    <path class="cls-3" d="M1485.34,8.51c-13.69-.18-1.68.85,0,0"/>
    <path class="cls-3" d="M1454.65,11.55c3.33-.17,15.74-.05,22.97.03.75-.33-3.12-.39-2.67-.7-5.93.17-30.4.07-20.29.68"/>
    <path class="cls-1" d="M1454.65,11.55c3.33-.17,15.74-.05,22.97.03.75-.33-3.12-.39-2.67-.7-5.93.17-30.4.07-20.29.68Z"/>
    <path class="cls-3" d="M1473.85,13.27c-21.68-.41,7.1.13,0,0"/>
    <path class="cls-3" d="M1468.34,11.65c7.11.14-21.72-.41,0,0"/>
    <path class="cls-3" d="M1434.18,14.54c2.41-.2,29.23.37,29.44-.5-11.34-.05-38.26-.15-29.44.5"/>
    <path class="cls-1" d="M1434.18,14.54c2.41-.2,29.23.37,29.44-.5-11.34-.05-38.26-.15-29.44.5Z"/>
    <path class="cls-3" d="M1428.94,19.15c15.99-.16,21.04.23,33.34-.19-10.63.09-29.14-.26-33.34.19"/>
    <path class="cls-1" d="M1428.94,19.15c15.99-.16,21.04.23,33.34-.19-10.63.09-29.14-.26-33.34.19Z"/>
    <path class="cls-3" d="M1433.94,23.16c-2.43,0-4.82,0-7.28-.01-3.67.55,10.69.58,7.28.01"/>
    <path class="cls-1" d="M1433.94,23.16c-2.43,0-4.82,0-7.28-.01-3.67.55,10.69.58,7.28.01Z"/>
    <path class="cls-3" d="M1437.02,11.08c-6.99-.04-13.72-.06-14.29.35,7.06.04,13.75.05,14.29-.35"/>
    <path class="cls-1" d="M1437.02,11.08c-6.99-.04-13.72-.06-14.29.35,7.06.04,13.75.05,14.29-.35Z"/>
    <path class="cls-3" d="M1428.12,18.16c-17.38-.13-28.7-.21-42.3.17,21.57-.05,35.51.53,42.3-.17"/>
    <path class="cls-1" d="M1428.12,18.16c-17.38-.13-28.7-.21-42.3.17,21.57-.05,35.51.53,42.3-.17Z"/>
    <path class="cls-3" d="M1414.39,9.89c.36,0,2.33.05,7.2.1,6.89.13-6.21-.09-7.2-.1"/>
    <path class="cls-1" d="M1414.39,9.89c.36,0,2.33.05,7.2.1,6.89.13-6.21-.09-7.2-.1Z"/>
    <path class="cls-3" d="M1320.72,11.38c16.75.13,80.79.16,105.51-.11-26.23-.53-74.75-.26-105.51.11"/>
    <path class="cls-1" d="M1320.72,11.38c16.75.13,80.79.16,105.51-.11-26.23-.53-74.75-.26-105.51.11Z"/>
    <path class="cls-3" d="M1410.36,19.27c-8.2.12-5.15.12-13.31-.01-2.76.66,14.8.41,13.31.01"/>
    <path class="cls-1" d="M1410.36,19.27c-8.2.12-5.15.12-13.31-.01-2.76.66,14.8.41,13.31.01Z"/>
    <path class="cls-3" d="M1398.56,9.78c-17.46-.14-28.79-.19-42.39.17,14.03,0,8.65.52,27.95.39-1.92-.36,9.75-.36,14.44-.55"/>
    <path class="cls-1" d="M1398.56,9.78c-17.46-.14-28.79-.19-42.39.17,14.03,0,8.65.52,27.95.39-1.92-.36,9.75-.36,14.44-.55Z"/>
    <path class="cls-3" d="M1357.13,18.15c-12.02-.51-9.03.66,0,0"/>
    <path class="cls-3" d="M1354.49,11.12c-8.16.03-19.68-.18-20.23.35,8.12-.01,19.68.19,20.23-.35"/>
    <path class="cls-1" d="M1354.49,11.12c-8.16.03-19.68-.18-20.23.35,8.12-.01,19.68.19,20.23-.35Z"/>
    <path class="cls-3" d="M1251.74,9.89c25.65.28,71.84.28,85.27-.26-24.6-.28-57.02.18-85.27.26"/>
    <path class="cls-1" d="M1251.74,9.89c25.65.28,71.84.28,85.27-.26-24.6-.28-57.02.18-85.27.26Z"/>
    <path class="cls-3" d="M1258.53,19.1c15.1.34,63.18.36,70.55-.13-34.48.15-47.56-.21-70.55.13"/>
    <path class="cls-1" d="M1258.53,19.1c15.1.34,63.18.36,70.55-.13-34.48.15-47.56-.21-70.55.13Z"/>
    <path class="cls-3" d="M1294.35,10.94c-1.01.31-8.92-.19-11.72.35,5.53-.04,6.36.21,11.54.2.48-.21,5.29-.41.18-.55"/>
    <path class="cls-1" d="M1294.35,10.94c-1.01.31-8.92-.19-11.72.35,5.53-.04,6.36.21,11.54.2.48-.21,5.29-.41.18-.55Z"/>
    <path class="cls-3" d="M1284.57,18.7c6.81-.16,1.84-.54-10.27-.39-1.14.21,4.53.3,10.27.39"/>
    <path class="cls-1" d="M1284.57,18.7c6.81-.16,1.84-.54-10.27-.39-1.14.21,4.53.3,10.27.39Z"/>
    <path class="cls-3" d="M1292.44,19.3c-16.88.1-50.85-.28-56.38.15,18.11.18,46.98.35,56.38-.15"/>
    <path class="cls-1" d="M1292.44,19.3c-16.88.1-50.85-.28-56.38.15,18.11.18,46.98.35,56.38-.15Z"/>
    <path class="cls-3" d="M1275.4,11.6c-17.83-.31,8.5.16,0,0"/>
    <path class="cls-3" d="M1271.95,5.25c-29.99.19-16.81.1-6.9-.39-19.15.1-55.7-.27-63.51.16h21.17c-.16.19-.24.39-.33.57,19.82-.01,48.23.21,49.57-.34"/>
    <path class="cls-1" d="M1271.95,5.25c-29.99.19-16.81.1-6.9-.39-19.15.1-55.7-.27-63.51.16h21.17c-.16.19-.24.39-.33.57,19.82-.01,48.23.21,49.57-.34Z"/>
    <path class="cls-3" d="M1184.43,19.58c30.77.03,63.55.12,77.63-.32-43.01.05-52.73-.12-77.63.32"/>
    <path class="cls-1" d="M1184.43,19.58c30.77.03,63.55.12,77.63-.32-43.01.05-52.73-.12-77.63.32Z"/>
    <path class="cls-3" d="M1222.35,11.35c7.6.08,19.96.18,28.41-.13-5.96.09-22.79-.57-28.41.13"/>
    <path class="cls-1" d="M1222.35,11.35c7.6.08,19.96.18,28.41-.13-5.96.09-22.79-.57-28.41.13Z"/>
    <path class="cls-3" d="M1239.58,18.9h-5.67c-.04.18-2.36.22-2.94.36,4.45,0,9.83.05,8.61-.36"/>
    <path class="cls-1" d="M1239.58,18.9h-5.67c-.04.18-2.36.22-2.94.36,4.45,0,9.83.05,8.61-.36Z"/>
    <path class="cls-3" d="M1235.66,8.11c-4.16-.3-19.04-.37-16.84.35,7.42.03,16.44.13,16.84-.35"/>
    <path class="cls-1" d="M1235.66,8.11c-4.16-.3-19.04-.37-16.84.35,7.42.03,16.44.13,16.84-.35Z"/>
    <path class="cls-3" d="M1224.1,5.43c-7.8.21-8.55.12-13.55.49,3.52.29,14.92.31,13.55-.49"/>
    <path class="cls-1" d="M1224.1,5.43c-7.8.21-8.55.12-13.55.49,3.52.29,14.92.31,13.55-.49Z"/>
    <path class="cls-3" d="M1229.59,2.13c.15-.18.24-.39.33-.57-21.64-.14-13.47-.14-35.28-.03.26.34-1.93.59-7.57.75,17.43.05,34.01.05,42.52-.16"/>
    <path class="cls-1" d="M1229.59,2.13c.15-.18.24-.39.33-.57-21.64-.14-13.47-.14-35.28-.03.26.34-1.93.59-7.57.75,17.43.05,34.01.05,42.52-.16Z"/>
    <path class="cls-3" d="M1127.23,11.31c44.35.03,62.79.36,98.64-.13-21.87-.16-88.8-.57-98.64.13"/>
    <path class="cls-1" d="M1127.23,11.31c44.35.03,62.79.36,98.64-.13-21.87-.16-88.8-.57-98.64.13Z"/>
    <path class="cls-3" d="M1201.9,18.51h-7.24c-3.7.54,10.68.57,7.24,0"/>
    <path class="cls-1" d="M1201.9,18.51h-7.24c-3.7.54,10.68.57,7.24,0Z"/>
    <path class="cls-3" d="M1192.81,18.06c-21.64-.41,7.11.16,0,0"/>
    <path class="cls-3" d="M1178.18,19.32c.1-.25,4.88-.16,5.63-.36-5.6-.21-13.28.26-5.63.36"/>
    <path class="cls-1" d="M1178.18,19.32c.1-.25,4.88-.16,5.63-.36-5.6-.21-13.28.26-5.63.36Z"/>
    <path class="cls-3" d="M1156,.94c6.14-.1,19.29.27,20.66-.17-3.93-.26-20.44-.38-20.66.17"/>
    <path class="cls-1" d="M1156,.94c6.14-.1,19.29.27,20.66-.17-3.93-.26-20.44-.38-20.66.17Z"/>
    <path class="cls-3" d="M1176.86,1.53c-5.6-.08-7.33-.41-14.7-.39-3.67.54,12.27.83,14.7.39"/>
    <path class="cls-1" d="M1176.86,1.53c-5.6-.08-7.33-.41-14.7-.39-3.67.54,12.27.83,14.7.39Z"/>
    <path class="cls-3" d="M1158.76,19.29c-.23-.18,10.56-.32,2.55-.5.23.17-10.56.32-2.55.5"/>
    <path class="cls-1" d="M1158.76,19.29c-.23-.18,10.56-.32,2.55-.5.23.17-10.56.32-2.55.5Z"/>
    <path class="cls-3" d="M1161.12,10.97c-11.61.38-46.26-.39-51.72.45,18.4-.11,32.22.01,51.57.07,0-.18.07-.34.15-.52"/>
    <path class="cls-1" d="M1161.12,10.97c-11.61.38-46.26-.39-51.72.45,18.4-.11,32.22.01,51.57.07,0-.18.07-.34.15-.52Z"/>
    <path class="cls-3" d="M1105.43,6.8c12.7-.03,42.8.06,55.8-.06-15.8,0-15.54-.1-33.32-.04-2.75-.18-29.04-.15-36.92-.11,5.71.12,16.64.09,14.43.21"/>
    <path class="cls-1" d="M1105.43,6.8c12.7-.03,42.8.06,55.8-.06-15.8,0-15.54-.1-33.32-.04-2.75-.18-29.04-.15-36.92-.11,5.71.12,16.64.09,14.43.21Z"/>
    <path class="cls-3" d="M1149.29,2.84c-5.47-.01-10.98-.03-16.49-.03-3.8,1.11,18.26.85,16.49.03"/>
    <path class="cls-1" d="M1149.29,2.84c-5.47-.01-10.98-.03-16.49-.03-3.8,1.11,18.26.85,16.49.03Z"/>
    <path class="cls-3" d="M1142.66,3.84c-5.52.2-13.31.26-14.65.73,10.95.14,20.52-.29,14.65-.73"/>
    <path class="cls-1" d="M1142.66,3.84c-5.52.2-13.31.26-14.65.73,10.95.14,20.52-.29,14.65-.73Z"/>
    <path class="cls-3" d="M1139.26,11.6c-17.82-.31,8.46.14,0,0"/>
    <path class="cls-3" d="M1099.2,11.86c7.49-.03,28.64-.12,23.75-.33-12.88.13-21.28-.55-23.75.33"/>
    <path class="cls-1" d="M1099.2,11.86c7.49-.03,28.64-.12,23.75-.33-12.88.13-21.28-.55-23.75.33Z"/>
    <path class="cls-3" d="M1104.5,14.39c9.67.04,18.5.04,21.58-.35-6.77-.41-20.18-.17-21.58.35"/>
    <path class="cls-1" d="M1104.5,14.39c9.67.04,18.5.04,21.58-.35-6.77-.41-20.18-.17-21.58.35Z"/>
    <path class="cls-3" d="M1115.2,2.16c-2.16-.05-3.2-.18-2.7-.38-7.13,0-14.4.01-14.1.54,4.93-.1,16.36.26,16.79-.16"/>
    <path class="cls-1" d="M1115.2,2.16c-2.16-.05-3.2-.18-2.7-.38-7.13,0-14.4.01-14.1.54,4.93-.1,16.36.26,16.79-.16Z"/>
    <path class="cls-3" d="M1113.32,7.75c-3.77-.25-12.9-.2-20.79-.22-2.34.51,5.79.38,5.73.75,6.96-.05,12.89-.16,15.06-.53"/>
    <path class="cls-1" d="M1113.32,7.75c-3.77-.25-12.9-.2-20.79-.22-2.34.51,5.79.38,5.73.75,6.96-.05,12.89-.16,15.06-.53Z"/>
    <path class="cls-3" d="M1115.73,8.33c-12.2-.36-21.88.03-28.45.36,16.08.05,26.59-.03,28.45-.36"/>
    <path class="cls-1" d="M1115.73,8.33c-12.2-.36-21.88.03-28.45.36,16.08.05,26.59-.03,28.45-.36Z"/>
    <path class="cls-3" d="M1093.43,13.76c-2.43-.01-4.85-.03-7.28-.03-3.7.54,10.72.57,7.28.03"/>
    <path class="cls-1" d="M1093.43,13.76c-2.43-.01-4.85-.03-7.28-.03-3.7.54,10.72.57,7.28.03Z"/>
    <path class="cls-3" d="M1103.39,14.07c-14.16-.01-28.31-.01-42.37-.03-.67.99,32.93.35,42.37.03"/>
    <path class="cls-1" d="M1103.39,14.07c-14.16-.01-28.31-.01-42.37-.03-.67.99,32.93.35,42.37.03Z"/>
    <path class="cls-3" d="M1092.8,14.67h-5.6c-.03.18-2.34.21-2.91.36,4.38,0,9.74.05,8.5-.36"/>
    <path class="cls-1" d="M1092.8,14.67h-5.6c-.03.18-2.34.21-2.91.36,4.38,0,9.74.05,8.5-.36Z"/>
    <path class="cls-3" d="M1091.05,18.55c-2.43-.01-4.86-.02-7.29-.02-3.7.54,10.73.57,7.29.02"/>
    <path class="cls-1" d="M1091.05,18.55c-2.43-.01-4.86-.02-7.29-.02-3.7.54,10.73.57,7.29.02Z"/>
    <path class="cls-3" d="M1103.29,11.46c-30.73.21-46.7-.18-56.71.35,17.83-.14,60.57.4,56.71-.35"/>
    <path class="cls-1" d="M1103.29,11.46c-30.73.21-46.7-.18-56.71.35,17.83-.14,60.57.4,56.71-.35Z"/>
    <path class="cls-3" d="M1081.94,10.98c-4.42-.01-8.81-.01-13.24-.01-.63.67,13.53.69,13.24.01"/>
    <path class="cls-1" d="M1081.94,10.98c-4.42-.01-8.81-.01-13.24-.01-.63.67,13.53.69,13.24.01Z"/>
    <path class="cls-3" d="M1046.21,14.43c16.08.08,26.59-.02,28.54-.36-13.22.03-23.65.11-28.54.36"/>
    <path class="cls-1" d="M1046.21,14.43c16.08.08,26.59-.02,28.54-.36-13.22.03-23.65.11-28.54.36Z"/>
    <path class="cls-3" d="M1058.81,6.88c-3.43,0-6.85-.01-10.28-.03-.03.13-.06.25-.06.38,3.39,0,6.82.01,10.24.03,0-.13.03-.25.09-.38"/>
    <path class="cls-1" d="M1058.81,6.88c-3.43,0-6.85-.01-10.28-.03-.03.13-.06.25-.06.38,3.39,0,6.82.01,10.24.03,0-.13.03-.25.09-.38Z"/>
    <path class="cls-3" d="M1036.05,14.42c13.13,0,23.65-.1,28.54-.35-16.08-.06-26.68.02-28.54.35"/>
    <path class="cls-1" d="M1036.05,14.42c13.13,0,23.65-.1,28.54-.35-16.08-.06-26.68.02-28.54.35Z"/>
    <path class="cls-3" d="M1026.17,19.43c3.69,0,7.35.01,11.01.03-.36-.22.66-.53-2.57-.56,1.09.76-7.41-.19-8.44.54"/>
    <path class="cls-1" d="M1026.17,19.43c3.69,0,7.35.01,11.01.03-.36-.22.66-.53-2.57-.56,1.09.76-7.41-.19-8.44.54Z"/>
    <path class="cls-3" d="M1030.26,14.25c-17.83-.31,8.5.15,0,0"/>
    <path class="cls-3" d="M1042.37,10.92c-38.91.19-64.33-.3-84.7.52,51.07-.23,64.57.41,84.7-.52"/>
    <path class="cls-1" d="M1042.37,10.92c-38.91.19-64.33-.3-84.7.52,51.07-.23,64.57.41,84.7-.52Z"/>
    <path class="cls-3" d="M1022.53,11.55c-14.71.1-37.4-.31-47.02.12,14.26.24,36.46.37,47.02-.12"/>
    <path class="cls-1" d="M1022.53,11.55c-14.71.1-37.4-.31-47.02.12,14.26.24,36.46.37,47.02-.12Z"/>
    <path class="cls-3" d="M913.93,14.42c30.8-.14,73.68.49,94.69-.26-28.05-.23-66.52-.39-94.69.26"/>
    <path class="cls-1" d="M913.93,14.42c30.8-.14,73.68.49,94.69-.26-28.05-.23-66.52-.39-94.69.26Z"/>
    <path class="cls-3" d="M981.05,15.38c4.69-.16,14.28.04,13.45-.49-7.62-.05-14.5-.05-13.45.49"/>
    <path class="cls-1" d="M981.05,15.38c4.69-.16,14.28.04,13.45-.49-7.62-.05-14.5-.05-13.45.49Z"/>
    <path class="cls-3" d="M995.35,7.73c-26.69.2-32.07-.19-42.6.35,18.69.01,41.52.13,42.6-.35"/>
    <path class="cls-1" d="M995.35,7.73c-26.69.2-32.07-.19-42.6.35,18.69.01,41.52.13,42.6-.35Z"/>
    <path class="cls-3" d="M979.44,7.01c-5.45-.4-8.64.15-13.28-.19-4.27.52,13.69.48,13.28.19"/>
    <path class="cls-1" d="M979.44,7.01c-5.45-.4-8.64.15-13.28-.19-4.27.52,13.69.48,13.28.19Z"/>
    <path class="cls-3" d="M967.95,11.02c-4.28.03-10.49-.09-11.45.17,2.07.14,13.82.49,11.45-.17"/>
    <path class="cls-1" d="M967.95,11.02c-4.28.03-10.49-.09-11.45.17,2.07.14,13.82.49,11.45-.17Z"/>
    <path class="cls-3" d="M956.41,15.14c-7.98-.1-11.49.14-10.42.73,7.99.1,11.49-.14,10.42-.73"/>
    <path class="cls-1" d="M956.41,15.14c-7.98-.1-11.49.14-10.42.73,7.99.1,11.49-.14,10.42-.73Z"/>
    <path class="cls-3" d="M982.56,11.02c-40.16.15-108.74-.48-126.83.3,41.91-.1,106.13.41,126.83-.3"/>
    <path class="cls-1" d="M982.56,11.02c-40.16.15-108.74-.48-126.83.3,41.91-.1,106.13.41,126.83-.3Z"/>
    <path class="cls-3" d="M945.21,5.82c-1.78-.15-15.76-.51-13.38.16,1.02.44,14.56.21,13.38-.16"/>
    <path class="cls-1" d="M945.21,5.82c-1.78-.15-15.76-.51-13.38.16,1.02.44,14.56.21,13.38-.16Z"/>
    <path class="cls-3" d="M954.17.71c-5.65-.16-45.91-.45-49.75-.03,19.47.05,14.93.66,41.04.58-.2-.26,4.25-.43,8.71-.55"/>
    <path class="cls-1" d="M954.17.71c-5.65-.16-45.91-.45-49.75-.03,19.47.05,14.93.66,41.04.58-.2-.26,4.25-.43,8.71-.55Z"/>
    <path class="cls-3" d="M934.08,11.61c-25.09,0-77.8-.46-107.56.23,26.82-.23,70,.15,107.56-.23"/>
    <path class="cls-1" d="M934.08,11.61c-25.09,0-77.8-.46-107.56.23,26.82-.23,70,.15,107.56-.23Z"/>
    <path class="cls-3" d="M919.41,6.73c-18.97-.16-24.37.27-52.7.1,7.36.83,34.81.2,50.16.45.2-.22,3.14-.25,2.54-.55"/>
    <path class="cls-1" d="M919.41,6.73c-18.97-.16-24.37.27-52.7.1,7.36.83,34.81.2,50.16.45.2-.22,3.14-.25,2.54-.55Z"/>
    <path class="cls-3" d="M877.02,14.52c5.72.03,10.59-.05,13.85-.33-2.84-.1-14.47-.16-13.85.33"/>
    <path class="cls-1" d="M877.02,14.52c5.72.03,10.59-.05,13.85-.33-2.84-.1-14.47-.16-13.85.33Z"/>
    <path class="cls-3" d="M789.54,14.33c24.93,0,47.53.34,72.27.1,2.47-.03,3.67-.15,3.26-.36-77,.09-145.82.22-213.9.06,36.85,1.13,90.08.22,138.36.19"/>
    <path class="cls-1" d="M789.54,14.33c24.93,0,47.53.34,72.27.1,2.47-.03,3.67-.15,3.26-.36-77,.09-145.82.22-213.9.06,36.85,1.13,90.08.22,138.36.19Z"/>
    <path class="cls-3" d="M820.1,2.78c.07-.19.15-.39.18-.58-9.12-.01-15.26.16-18.11.54,3.74.27,14.04.28,17.93.04"/>
    <path class="cls-1" d="M820.1,2.78c.07-.19.15-.39.18-.58-9.12-.01-15.26.16-18.11.54,3.74.27,14.04.28,17.93.04Z"/>
    <path class="cls-3" d="M812.38,1.35c-2.99-.43-12.77.17-5.5.34.13-.24,4.8-.16,5.5-.34"/>
    <path class="cls-1" d="M812.38,1.35c-2.99-.43-12.77.17-5.5.34.13-.24,4.8-.16,5.5-.34Z"/>
    <path class="cls-3" d="M769.24,20.59c-4.37.5,6.83.85,8.07.39-5.38.04-5.31-.26-8.07-.39"/>
    <path class="cls-1" d="M769.24,20.59c-4.37.5,6.83.85,8.07.39-5.38.04-5.31-.26-8.07-.39Z"/>
    <path class="cls-3" d="M745.13,3.65c8.91.44,23.57-.08,31.32-.33-12.04.03-27.41-.18-31.32.33"/>
    <path class="cls-1" d="M745.13,3.65c8.91.44,23.57-.08,31.32-.33-12.04.03-27.41-.18-31.32.33Z"/>
    <path class="cls-3" d="M764.19,21.08c-.36-.2.62-.53-2.57-.55-.65.14-.16.37-2.82.37-.55-.14.03-.37-2.67-.37.43.28-1.1.67,2.57.73.65-.14,2.33-.2,5.48-.18"/>
    <path class="cls-1" d="M764.19,21.08c-.36-.2.62-.53-2.57-.55-.65.14-.16.37-2.82.37-.55-.14.03-.37-2.67-.37.43.28-1.1.67,2.57.73.65-.14,2.33-.2,5.48-.18Z"/>
    <path class="cls-3" d="M751.76,19.3c2.16-.83-19.05-.45-10.51-.01,1.88-.54,5.55.17,10.51.01"/>
    <path class="cls-1" d="M751.76,19.3c2.16-.83-19.05-.45-10.51-.01,1.88-.54,5.55.17,10.51.01Z"/>
    <path class="cls-3" d="M741.99,13.27c-6.45.07-5.72-.36-13.35-.22-4.92.84,14.02.71,13.35.22"/>
    <path class="cls-1" d="M741.99,13.27c-6.45.07-5.72-.36-13.35-.22-4.92.84,14.02.71,13.35.22Z"/>
    <path class="cls-3" d="M700.55,19.22c11.43-.32,29.41.3,32.39-.28-9.83.14-31.83-.4-32.39.28"/>
    <path class="cls-1" d="M700.55,19.22c11.43-.32,29.41.3,32.39-.28-9.83.14-31.83-.4-32.39.28Z"/>
    <path class="cls-3" d="M694.67,11.81c11.91-.31,20.09.18,30.21-.31-9.22.15-30.43-.4-30.21.31"/>
    <path class="cls-1" d="M694.67,11.81c11.91-.31,20.09.18,30.21-.31-9.22.15-30.43-.4-30.21.31Z"/>
    <path class="cls-3" d="M638.44,20.93c8.34.34,38.45.37,47.05.08-20.46-.14-24.76-.05-47.05-.08"/>
    <path class="cls-1" d="M638.44,20.93c8.34.34,38.45.37,47.05.08-20.46-.14-24.76-.05-47.05-.08Z"/>
    <path class="cls-3" d="M669.65,19.45c-21.68-.42,7.11.14,0,0"/>
    <path class="cls-3" d="M653.17,20.04c-.09.18-5.81.21-7.33.36,7.16,0,8.33.15,13.97.21.17-.2,5.98-.23,7.41-.39-7.07,0-8.33-.15-14.05-.18"/>
    <path class="cls-1" d="M653.17,20.04c-.09.18-5.81.21-7.33.36,7.16,0,8.33.15,13.97.21.17-.2,5.98-.23,7.41-.39-7.07,0-8.33-.15-14.05-.18Z"/>
    <path class="cls-3" d="M669.13,19.46c-34.48,0-22.67,0-35.07-.01-14.93.01,20.03.02,35.07.01"/>
    <path class="cls-1" d="M669.13,19.46c-34.48,0-22.67,0-35.07-.01-14.93.01,20.03.02,35.07.01Z"/>
    <path class="cls-3" d="M609.97,14.47c4.5.38,32.86.09,23.99-.34-7.17.58-20.35-.39-23.99.34"/>
    <path class="cls-1" d="M609.97,14.47c4.5.38,32.86.09,23.99-.34-7.17.58-20.35-.39-23.99.34Z"/>
    <path class="cls-3" d="M599.54,15.09c-8.77-.3-1.88.94,2.21.58,1.82-.18-1.3-.55-2.21-.58"/>
    <path class="cls-1" d="M599.54,15.09c-8.77-.3-1.88.94,2.21.58,1.82-.18-1.3-.55-2.21-.58Z"/>
    <path class="cls-3" d="M601.22,13c-6.86.07,1.76-.86-8.38-.58-3.04.7,5.54,1.29,8.38.58"/>
    <path class="cls-1" d="M601.22,13c-6.86.07,1.76-.86-8.38-.58-3.04.7,5.54,1.29,8.38.58Z"/>
    <path class="cls-3" d="M552.89,18.07c2.18,0-6.52,0-6.67,0,15.28,0,28.33,0,6.67,0"/>
    <path class="cls-1" d="M552.89,18.07c2.18,0-6.52,0-6.67,0,15.28,0,28.33,0,6.67,0Z"/>
    <path class="cls-3" d="M538.15,19.14c.88-.32,9.08.25,8.05-.54-3.9-.1-6.61-.27-10.47-.37-4.24.25-2.11.74,2.42.91"/>
    <path class="cls-1" d="M538.15,19.14c.88-.32,9.08.25,8.05-.54-3.9-.1-6.61-.27-10.47-.37-4.24.25-2.11.74,2.42.91Z"/>
    <path class="cls-3" d="M520.94,19.2c-21.68-.41,7.11.14,0,0"/>
    <path class="cls-3" d="M513.62,14.29c-2.39-.02-4.82-.02-7.24-.02-3.66.54,10.68.57,7.24.02"/>
    <path class="cls-1" d="M513.62,14.29c-2.39-.02-4.82-.02-7.24-.02-3.66.54,10.68.57,7.24.02Z"/>
    <path class="cls-3" d="M475.69,19.31h3.91c0-.13.05-.26.07-.37-1.32-.01-2.62-.01-3.94-.01-.02.13-.04.26-.04.39"/>
    <path class="cls-1" d="M475.69,19.31h3.91c0-.13.05-.26.07-.37-1.32-.01-2.62-.01-3.94-.01-.02.13-.04.26-.04.39Z"/>
    <path class="cls-3" d="M474.57,16.21c-3.45-.27-16.43-.36-16.63.15,1.98.15,19.01.54,16.63-.15"/>
    <path class="cls-1" d="M474.57,16.21c-3.45-.27-16.43-.36-16.63.15,1.98.15,19.01.54,16.63-.15Z"/>
    <path class="cls-3" d="M448.7,18.92c-11.1.43,7.29.5,0,0"/>
    <path class="cls-3" d="M447.75,19.61c.02-.13.05-.25.07-.37-1.35,0-2.69-.01-4.01-.01-.02.12-.07.25-.09.37,1.34,0,2.69,0,4.03.01"/>
    <path class="cls-1" d="M447.75,19.61c.02-.13.05-.25.07-.37-1.35,0-2.69-.01-4.01-.01-.02.12-.07.25-.09.37,1.34,0,2.69,0,4.03.01Z"/>
    <path class="cls-3" d="M454.12,19.08c-10.38-.3-28.85-.17-35.43.17,10.38-.1,36.35.24,35.43-.17"/>
    <path class="cls-1" d="M454.12,19.08c-10.38-.3-28.85-.17-35.43.17,10.38-.1,36.35.24,35.43-.17Z"/>
    <path class="cls-3" d="M435.05,19.26c-4.6.21-16.59-.13-21.97.16.04-.18.11-.38.15-.57-12.62.1-33.21-.28-40.76.13,11.29.21,36.47-.36,37.48.44-14.12-.08-69.72-.26-103.46.04,53.69.3,75.92.22,128.45.18,3.18.01,4.04-.32.12-.38"/>
    <path class="cls-1" d="M435.05,19.26c-4.6.21-16.59-.13-21.97.16.04-.18.11-.38.15-.57-12.62.1-33.21-.28-40.76.13,11.29.21,36.47-.36,37.48.44-14.12-.08-69.72-.26-103.46.04,53.69.3,75.92.22,128.45.18,3.18.01,4.04-.32.12-.38Z"/>
    <path class="cls-3" d="M348.08,21.1c13.61-.08,49.3.28,48.15-.12-13.57.08-49.29-.3-48.15.12"/>
    <path class="cls-1" d="M348.08,21.1c13.61-.08,49.3.28,48.15-.12-13.57.08-49.29-.3-48.15.12Z"/>
    <path class="cls-3" d="M375.56,11.43c-8.23.11-5.15.11-13.31-.01-2.76.65,14.8.4,13.31.01"/>
    <path class="cls-1" d="M375.56,11.43c-8.23.11-5.15.11-13.31-.01-2.76.65,14.8.4,13.31.01Z"/>
    <path class="cls-3" d="M345.1,19.16c7.28.14,14.74.15,21.41-.17-6.38.1-19.99-.27-21.41.17"/>
    <path class="cls-1" d="M345.1,19.16c7.28.14,14.74.15,21.41-.17-6.38.1-19.99-.27-21.41.17Z"/>
    <path class="cls-3" d="M361.62,3.36c-1.7-.01-3.3-.04-2.77-.19-7.33-.08-9.24.26-8.57.75,7.3.05,12.04-.05,11.34-.55"/>
    <path class="cls-1" d="M361.62,3.36c-1.7-.01-3.3-.04-2.77-.19-7.33-.08-9.24.26-8.57.75,7.3.05,12.04-.05,11.34-.55Z"/>
    <path class="cls-3" d="M353.5,11.6c-8.27-.04-18.8.07-22.87-.2-4.58.66,31.92.39,22.87.2"/>
    <path class="cls-1" d="M353.5,11.6c-8.27-.04-18.8.07-22.87-.2-4.58.66,31.92.39,22.87.2Z"/>
    <path class="cls-3" d="M356.16,12.21c-6.15-.02-27.14-.14-16.86.33,2.37-.31,18.36.37,16.86-.33"/>
    <path class="cls-1" d="M356.16,12.21c-6.15-.02-27.14-.14-16.86.33,2.37-.31,18.36.37,16.86-.33Z"/>
    <path class="cls-3" d="M324.9,16.29c5.45-.02,28.2.17,20.07-.17-5.41.04-28.16-.17-20.07.17"/>
    <path class="cls-1" d="M324.9,16.29c5.45-.02,28.2.17,20.07-.17-5.41.04-28.16-.17-20.07.17Z"/>
    <path class="cls-3" d="M320.18,18.93c9.96-.42,16.62.07,21.1-.68-11.14-.02-20.64.05-26.97.32,3.67.02,7.08.07,5.87.37"/>
    <path class="cls-1" d="M320.18,18.93c9.96-.42,16.62.07,21.1-.68-11.14-.02-20.64.05-26.97.32,3.67.02,7.08.07,5.87.37Z"/>
    <path class="cls-3" d="M328.52,12.18c-11.14.44,7.3.52,0,0"/>
    <path class="cls-3" d="M321.7,5.1c-7.63-.2-19.99.16-10.85.52.83-.37,11.87-.03,10.85-.52"/>
    <path class="cls-1" d="M321.7,5.1c-7.63-.2-19.99.16-10.85.52.83-.37,11.87-.03,10.85-.52Z"/>
    <path class="cls-3" d="M315.84,12.39c-8.21-.73,5.56.49,0,0"/>
    <path class="cls-3" d="M317.34,14.29c.03-.19.09-.38.16-.56-8.38-.03-18.11-.14-16.69.54,5.49,0,11.01.01,16.53.02"/>
    <path class="cls-1" d="M317.34,14.29c.03-.19.09-.38.16-.56-8.38-.03-18.11-.14-16.69.54,5.49,0,11.01.01,16.53.02Z"/>
    <path class="cls-3" d="M305.45,12.34c-13.7-.52-12.86.64,0,0"/>
    <path class="cls-3" d="M303.4,16.51c-1.88-.01-3.71-.02-5.58-.02-.04.19-2.37.23-2.94.38,4.44-.01,9.75.03,8.52-.36"/>
    <path class="cls-1" d="M303.4,16.51c-1.88-.01-3.71-.02-5.58-.02-.04.19-2.37.23-2.94.38,4.44-.01,9.75.03,8.52-.36Z"/>
    <path class="cls-3" d="M302.28,18.93c-1.33-.85-10.19-.09,0,0"/>
    <path class="cls-3" d="M227.02,20.73c9.67.75,53.99.47,69.05.28-22.14-.21-49.45.13-69.05-.28"/>
    <path class="cls-1" d="M227.02,20.73c9.67.75,53.99.47,69.05.28-22.14-.21-49.45.13-69.05-.28Z"/>
    <path class="cls-3" d="M69.25,12.36c83.16.31,145.98.44,218.46-.08-82.18-.15-134.7-.21-218.46.08"/>
    <path class="cls-1" d="M69.25,12.36c83.16.31,145.98.44,218.46-.08-82.18-.15-134.7-.21-218.46.08Z"/>
    <path class="cls-3" d="M285.56,14.06c-3.38,0-6.74-.01-10.12-.02-1.93.74,10.52.64,10.12.02"/>
    <path class="cls-1" d="M285.56,14.06c-3.38,0-6.74-.01-10.12-.02-1.93.74,10.52.64,10.12.02Z"/>
    <path class="cls-3" d="M273.4,13.47c-5.29-.02-11.44-.14-10.55.54,5.31.02,8.88-.16,10.55-.54"/>
    <path class="cls-1" d="M273.4,13.47c-5.29-.02-11.44-.14-10.55.54,5.31.02,8.88-.16,10.55-.54Z"/>
    <path class="cls-3" d="M268.4,21.72c-.05.13-.07.26-.1.37,1.35,0,2.7.01,4.06.01.02-.13.05-.26.07-.39h-4.03Z"/>
    <path class="cls-1" d="M268.4,21.72c-.05.13-.07.26-.1.37,1.35,0,2.7.01,4.06.01.02-.13.05-.26.07-.39h-4.03Z"/>
    <path class="cls-3" d="M272.39,16.14c-25.43,0-47.32-.12-55.15-.07-31.68.15,36.43.17,48.9.41.11-.23,5.45-.14,6.25-.34"/>
    <path class="cls-1" d="M272.39,16.14c-25.43,0-47.32-.12-55.15-.07-31.68.15,36.43.17,48.9.41.11-.23,5.45-.14,6.25-.34Z"/>
    <path class="cls-3" d="M253.39,13.6c-.02.13-.02.26-.05.39h4.18c.03-.13.05-.26.1-.38-1.41-.01-2.81-.01-4.24-.01"/>
    <path class="cls-1" d="M253.39,13.6c-.02.13-.02.26-.05.39h4.18c.03-.13.05-.26.1-.38-1.41-.01-2.81-.01-4.24-.01Z"/>
    <path class="cls-3" d="M246.09,2.96c-.88.61,3.14.9,11.11.95-1.65-.46-3.58-.89-11.11-.95"/>
    <path class="cls-1" d="M246.09,2.96c-.88.61,3.14.9,11.11.95-1.65-.46-3.58-.89-11.11-.95Z"/>
    <path class="cls-3" d="M229.33,18.97c-21.1-.28-5.6.77,0,0"/>
    <path class="cls-3" d="M228.09,11.15c-26.48-.38-60.73-.36-78.93.08,30.17.18,54.14.39,78.93-.08"/>
    <path class="cls-1" d="M228.09,11.15c-26.48-.38-60.73-.36-78.93.08,30.17.18,54.14.39,78.93-.08Z"/>
    <path class="cls-3" d="M227.78,3c-2.12-.16-16.54-.85-16.41-.03-.52.31,16.77.33,16.41.03"/>
    <path class="cls-1" d="M227.78,3c-2.12-.16-16.54-.85-16.41-.03-.52.31,16.77.33,16.41.03Z"/>
    <path class="cls-3" d="M171.88,1.37c-5.2-.09-4.81-.55-13.54-.4-4.42.97,12.89,1.23,13.54.4"/>
    <path class="cls-1" d="M171.88,1.37c-5.2-.09-4.81-.55-13.54-.4-4.42.97,12.89,1.23,13.54.4Z"/>
    <path class="cls-3" d="M156.42.65c-1.75-.45-14.91-.61-13.65.18,3.4.26,13.25.31,13.65-.18"/>
    <path class="cls-1" d="M156.42.65c-1.75-.45-14.91-.61-13.65.18,3.4.26,13.25.31,13.65-.18Z"/>
    <path class="cls-3" d="M134.67,14.53c-5.62-.21-13.28.27-5.62.36.09-.23,4.85-.16,5.62-.36"/>
    <path class="cls-1" d="M134.67,14.53c-5.62-.21-13.28.27-5.62.36.09-.23,4.85-.16,5.62-.36Z"/>
    <path class="cls-3" d="M116.94,9.6h-7.28c-3.67.52,10.75.55,7.28,0"/>
    <path class="cls-1" d="M116.94,9.6h-7.28c-3.67.52,10.75.55,7.28,0Z"/>
    <path class="cls-3" d="M68.82,11.27c-21.68-.42,7.14.13,0,0"/>
    <path class="cls-3" d="M57.53,20.69c-11.6.08-44.81-.27-41.83.13,11.66-.08,44.78.26,41.83-.13"/>
    <path class="cls-1" d="M57.53,20.69c-11.6.08-44.81-.27-41.83.13,11.66-.08,44.78.26,41.83-.13Z"/>
    <path class="cls-3" d="M1637.75,12.5c-5.75.17,19.04-.55,0,0"/>
    <path class="cls-3" d="M1579.89,18.78c2.37.75-26.63.44-18.3.93,6.6-.1,52-.1,48.23-.31-4.95,0-1.51-.51-5.81-.57-.57.55-2.62.62-18.27.53,4.42-.27,2.51-.59-5.85-.58"/>
    <path class="cls-1" d="M1579.89,18.78c2.37.75-26.63.44-18.3.93,6.6-.1,52-.1,48.23-.31-4.95,0-1.51-.51-5.81-.57-.57.55-2.62.62-18.27.53,4.42-.27,2.51-.59-5.85-.58Z"/>
    <path class="cls-3" d="M1363.91,19.46c-12.03.04-2.48-.33.13-.57-8.1-.26-10.2.98-15.56.34.08-.25,3.9-.15,4.51-.36-5.91-.01-11.82-.03-17.73-.03-.21,1.15-20.94,0-33.31.67,17.22.31,39.88.1,61.96-.05"/>
    <path class="cls-1" d="M1363.91,19.46c-12.03.04-2.48-.33.13-.57-8.1-.26-10.2.98-15.56.34.08-.25,3.9-.15,4.51-.36-5.91-.01-11.82-.03-17.73-.03-.21,1.15-20.94,0-33.31.67,17.22.31,39.88.1,61.96-.05Z"/>
    <path class="cls-3" d="M1294.94,5.38c-.26-.18,11.65-.34,2.81-.52,1.37.25-10.53.41-2.81.52"/>
    <path class="cls-1" d="M1294.94,5.38c-.26-.18,11.65-.34,2.81-.52,1.37.25-10.53.41-2.81.52Z"/>
    <path class="cls-3" d="M1007.75,18.8c-.26.33.48.59,2.55.76,6.9-.01,10.59-.24,11.05-.73-4.54,0-9.07-.01-13.6-.03"/>
    <path class="cls-1" d="M1007.75,18.8c-.26.33.48.59,2.55.76,6.9-.01,10.59-.24,11.05-.73-4.54,0-9.07-.01-13.6-.03Z"/>
    <path class="cls-3" d="M905.83,19.4c-5.21-.88-14.58.15,0,0M887.18,19.56c.08-.26.15-.5.22-.74,3.62.03,2.51.33,2.96.56,2.96-.13,4.8-.33,6.35-.56,45.29-.18,67.66.13,102.21-.03-.44.51,5.06.38-.22.74-5.43-.5-24.29-.51-21.67-.03-9.56-.08-16.02-.82-21.7-.03-4.03-.2-5.91-.53-12.19-.59-1.22.31,2.33.36,6.05.38-23.99.55-29.2.13-62.01.28"/>
    <path class="cls-1" d="M905.83,19.4c-5.21-.88-14.58.15,0,0ZM887.18,19.56c.08-.26.15-.5.22-.74,3.62.03,2.51.33,2.96.56,2.96-.13,4.8-.33,6.35-.56,45.29-.18,67.66.13,102.21-.03-.44.51,5.06.38-.22.74-5.43-.5-24.29-.51-21.67-.03-9.56-.08-16.02-.82-21.7-.03-4.03-.2-5.91-.53-12.19-.59-1.22.31,2.33.36,6.05.38-23.99.55-29.2.13-62.01.28Z"/>
    <path class="cls-3" d="M975.18,11.66c-20.65-.26-44.32-.23-56.91-.04,14.54.01,46.92.53,56.91.04"/>
    <path class="cls-1" d="M975.18,11.66c-20.65-.26-44.32-.23-56.91-.04,14.54.01,46.92.53,56.91.04Z"/>
    <path class="cls-3" d="M411.53,11.84c4.53-.01,5.43-.14,9.62-.17,58.04.23,123.21-.23,170.76.29,21.89-.52,69.36.06,95.24-.38-45.13-.09-65.06.16-94.9-.06,46.76-.16,120.38-.25,158.26.01-2.67.34-19.43-.24-15.92.17,27.13.24,53.43-.15,79.13.05-10.76-.52-52.61.13-53.66-.3,40.45-.23,99.77.18,129.96-.17-195.43-.18-357.92-.08-516.07-.08,5.05-.13,3.77-.4-6.08-.36-14.68.05,4.64.3-3.4.35-14.57.04-24.34-.04-31.59-.2-24.53.4-78.11-.12-101.5.38,28.79.07,65.54-.02,82.26.06,90.53-.01,171.4-.29,275.32.18-65.74-.09-125.77-.01-183.59-.04.87.21,4.79.34,2.8.63-4.65.04-16.31-.12-15.89.08,10.72-.09,4.75.28,6.04.45,20.46-.14,18.79-.44,13.21-.89"/>
    <path class="cls-1" d="M411.53,11.84c4.53-.01,5.43-.14,9.62-.17,58.04.23,123.21-.23,170.76.29,21.89-.52,69.36.06,95.24-.38-45.13-.09-65.06.16-94.9-.06,46.76-.16,120.38-.25,158.26.01-2.67.34-19.43-.24-15.92.17,27.13.24,53.43-.15,79.13.05-10.76-.52-52.61.13-53.66-.3,40.45-.23,99.77.18,129.96-.17-195.43-.18-357.92-.08-516.07-.08,5.05-.13,3.77-.4-6.08-.36-14.68.05,4.64.3-3.4.35-14.57.04-24.34-.04-31.59-.2-24.53.4-78.11-.12-101.5.38,28.79.07,65.54-.02,82.26.06,90.53-.01,171.4-.29,275.32.18-65.74-.09-125.77-.01-183.59-.04.87.21,4.79.34,2.8.63-4.65.04-16.31-.12-15.89.08,10.72-.09,4.75.28,6.04.45,20.46-.14,18.79-.44,13.21-.89Z"/>
    <path class="cls-3" d="M821.17,18.55c-3.42.66,23.1,0,24.46.45-10.28,0-20.57-.02-30.82-.03.22-.18,4.04-.19,3.23-.42-12.01-.14-18,.29-24.65-.02-.55.15.37.39-3.23.4-.44-.15.69-.39-2.94-.41-1.76.2,3.3.72-3.34.7.07-.91-1.44-.31-6.14-.02.99-.37,1.29-.69-9.03-.57-1.72.59,9.52-.18,5.95.57-15.76-.05-38.49.17-43.08-.18,5.39.43-22.41-.18-18.59.26,43.85.6,81.17-.1,135.64-.13.51-.15-.37-.4,3.23-.42,3.49.33,20.97,0,21.41.45.56-.16-.4-.39,3.23-.41.41.15-.7.4,2.9.42-1.58-.21,3.89-.73-2.79-.71-13.81.1-48.04.29-55.46.08"/>
    <path class="cls-1" d="M821.17,18.55c-3.42.66,23.1,0,24.46.45-10.28,0-20.57-.02-30.82-.03.22-.18,4.04-.19,3.23-.42-12.01-.14-18,.29-24.65-.02-.55.15.37.39-3.23.4-.44-.15.69-.39-2.94-.41-1.76.2,3.3.72-3.34.7.07-.91-1.44-.31-6.14-.02.99-.37,1.29-.69-9.03-.57-1.72.59,9.52-.18,5.95.57-15.76-.05-38.49.17-43.08-.18,5.39.43-22.41-.18-18.59.26,43.85.6,81.17-.1,135.64-.13.51-.15-.37-.4,3.23-.42,3.49.33,20.97,0,21.41.45.56-.16-.4-.39,3.23-.41.41.15-.7.4,2.9.42-1.58-.21,3.89-.73-2.79-.71-13.81.1-48.04.29-55.46.08Z"/>
    <path class="cls-3" d="M741.63,21.12c-18.63-.31,5.66.09,0,0"/>
    <path class="cls-3" d="M628.28,19.63c-13.51,0,2.16-.09,3.28-.14.67.04-.04.09,3.01.09.23-.06-1.37-.1-2.97-.14-13.14.04-7,.11-18.95.18-2.83-.07-15.29-.23-21.73-.1,5.4,0,7.96.04,9.27.1-37.77-.08-57.09.12-109.26-.04,3.68,0,8.89,0,9.45-.05-12.99-.03-13.95.13-28.17.09.56-.14-7.52-.14-15.49-.15-1.52.18,9.38-.02,12.32.15-5.92.02-18.72-.08-15.71.09,59.95-.06,99.99.09,143.61,0,1.86.1-9.01.15,2.98.14,1.86-.19,20.62-.12,28.35-.23"/>
    <path class="cls-1" d="M628.28,19.63c-13.51,0,2.16-.09,3.28-.14.67.04-.04.09,3.01.09.23-.06-1.37-.1-2.97-.14-13.14.04-7,.11-18.95.18-2.83-.07-15.29-.23-21.73-.1,5.4,0,7.96.04,9.27.1-37.77-.08-57.09.12-109.26-.04,3.68,0,8.89,0,9.45-.05-12.99-.03-13.95.13-28.17.09.56-.14-7.52-.14-15.49-.15-1.52.18,9.38-.02,12.32.15-5.92.02-18.72-.08-15.71.09,59.95-.06,99.99.09,143.61,0,1.86.1-9.01.15,2.98.14,1.86-.19,20.62-.12,28.35-.23Z"/>
    <path class="cls-3" d="M321.3,11.67c-1.4,0-2.81,0-3.87.01,1.4-.01,2.89-.01,4.39-.01h-.52Z"/>
    <path class="cls-1" d="M321.3,11.67c-1.4,0-2.81,0-3.87.01,1.4-.01,2.89-.01,4.39-.01h-.52Z"/>
    <path class="cls-3" d="M319.4,11.69c-7.46.03-5.19.01,0,0"/>
    <path class="cls-3" d="M320.1,11.68c1.71-.03,2.58-.03,2.95-.03-.43,0-1.64.01-2.95.03"/>
    <path class="cls-1" d="M320.1,11.68c1.71-.03,2.58-.03,2.95-.03-.43,0-1.64.01-2.95.03Z"/>
    <path class="cls-3" d="M116.51,19.44c-5.25,0-10.57,0-15.82,0-5.03.05,20.5.05,15.82,0M246.4,19.43c-3.14,0-6.31,0-9.48,0-4.83.05,14.01.05,9.48,0M27.64,19.49c9.73-.05,38.21-.03,38.36-.09,9.47.02-.76.07-9.67.05,2.3.03,25.97.03,28.5,0,1.48-.04-11.97.04-12.65-.02,10.88-.02,60.41-.06,47.39.04,10.54.02,10.5-.02,9.74-.06,13.07-.01,16.16.03,28.43.02-5.1.06-21.75-.04-25.37.01,23.41.02,95.26.08,101.52-.04,27.83.03,42.59,0,75.9.03-13.22.03-46.97.02-60.14,0,6.15.1,43.42-.02,53.61.07-108.4-.02-159.26,0-275.62,0"/>
    <path class="cls-1" d="M116.51,19.44c-5.25,0-10.57,0-15.82,0-5.03.05,20.5.05,15.82,0ZM246.4,19.43c-3.14,0-6.31,0-9.48,0-4.83.05,14.01.05,9.48,0ZM27.64,19.49c9.73-.05,38.21-.03,38.36-.09,9.47.02-.76.07-9.67.05,2.3.03,25.97.03,28.5,0,1.48-.04-11.97.04-12.65-.02,10.88-.02,60.41-.06,47.39.04,10.54.02,10.5-.02,9.74-.06,13.07-.01,16.16.03,28.43.02-5.1.06-21.75-.04-25.37.01,23.41.02,95.26.08,101.52-.04,27.83.03,42.59,0,75.9.03-13.22.03-46.97.02-60.14,0,6.15.1,43.42-.02,53.61.07-108.4-.02-159.26,0-275.62,0Z"/>
    <path class="cls-3" d="M45.51,11.55c-11.2.07-22.21.16-32.92.26,10.26-.1,22.36.1,32.92-.26"/>
    <path class="cls-1" d="M45.51,11.55c-11.2.07-22.21.16-32.92.26,10.26-.1,22.36.1,32.92-.26Z"/>
    <path class="cls-3" d="M310.27,11.51c-71.04.19-169.03-.44-256.75.03,97.04.27,192.84.57,256.75-.03"/>
    <path class="cls-1" d="M310.27,11.51c-71.04.19-169.03-.44-256.75.03,97.04.27,192.84.57,256.75-.03Z"/>
    <path class="cls-3" d="M45.98,11.61c2.46-.03,4.96-.03,7.45-.05-1.92,0-3.84,0-5.76-.02-.58.02-1.12.05-1.7.08"/>
    <path class="cls-1" d="M45.98,11.61c2.46-.03,4.96-.03,7.45-.05-1.92,0-3.84,0-5.76-.02-.58.02-1.12.05-1.7.08Z"/>
    <path class="cls-3" d="M39.86,16.21c-8.4-.03-16.76-.03-25.15-.05-18.86.05-19.61.08-.08.19,58.3.32,133.05-.13,179.38-.3-48.47.22-106.84-.16-154.15.15"/>
    <path class="cls-1" d="M39.86,16.21c-8.4-.03-16.76-.03-25.15-.05-18.86.05-19.61.08-.08.19,58.3.32,133.05-.13,179.38-.3-48.47.22-106.84-.16-154.15.15Z"/>
    <path class="cls-3" d="M141.38,11.14c-19.17-.28-49.62-.48-48.15.28,5.38-.35,48.08.05,48.15-.28"/>
    <path class="cls-1" d="M141.38,11.14c-19.17-.28-49.62-.48-48.15.28,5.38-.35,48.08.05,48.15-.28Z"/>
    <path class="cls-3" d="M840.82,21.18c248.51-.01,549.53.02,788.6,0-41.79,0-94.74,0-126.53-.02-55.18.02-110.89.01-167.96.01-230.02,0-327.66,0-560.55,0,24.27.02,76.21.03,66.43,0"/>
    <path class="cls-1" d="M840.82,21.18c248.51-.01,549.53.02,788.6,0-41.79,0-94.74,0-126.53-.02-55.18.02-110.89.01-167.96.01-230.02,0-327.66,0-560.55,0,24.27.02,76.21.03,66.43,0Z"/>
    <path class="cls-3" d="M1182.48,19.33c-2.93-.03-22.99.43-25.08-.18-11.07.22-25.39.39-39.15.1,7.87-.02,19.09.15,19.66-.26-28.65.33-38.12-.07-64.3-.09-.5.17.37.42-2.96.45-1.36-.78-24.09.09-27.82-.34.3.28,1.66.51,5.4.6,14.69-.15,49.41-.08,75.49-.05,18.92.02,47.81.37,58.77-.22"/>
    <path class="cls-1" d="M1182.48,19.33c-2.93-.03-22.99.43-25.08-.18-11.07.22-25.39.39-39.15.1,7.87-.02,19.09.15,19.66-.26-28.65.33-38.12-.07-64.3-.09-.5.17.37.42-2.96.45-1.36-.78-24.09.09-27.82-.34.3.28,1.66.51,5.4.6,14.69-.15,49.41-.08,75.49-.05,18.92.02,47.81.37,58.77-.22Z"/>
    <path class="cls-3" d="M179.64,6.77c59.25.07,153.72.03,224.82-.01,144.24-.1,274.11.29,389.33.16,10.46-.02,25.7,0,34.98-.16-231.65-.15-506.36-.31-750.32-.15,24.01.29,59.89.09,91.64.2-8.49.04-19.82.01-25.44.1,13.13-.03,30.87.03,15.66.17,19.25.05,17.78-.18,19.32-.32"/>
    <path class="cls-1" d="M179.64,6.77c59.25.07,153.72.03,224.82-.01,144.24-.1,274.11.29,389.33.16,10.46-.02,25.7,0,34.98-.16-231.65-.15-506.36-.31-750.32-.15,24.01.29,59.89.09,91.64.2-8.49.04-19.82.01-25.44.1,13.13-.03,30.87.03,15.66.17,19.25.05,17.78-.18,19.32-.32Z"/>
    <path class="cls-3" d="M71.44,20.71c19.32.05,51.67-.04,56.79.26,16.5.31,81.43.46,94.87-.23-24.74-.13-91.03-.28-151.67-.03"/>
    <path class="cls-1" d="M71.44,20.71c19.32.05,51.67-.04,56.79.26,16.5.31,81.43.46,94.87-.23-24.74-.13-91.03-.28-151.67-.03Z"/>
  </g>
</svg>